<?xml version="1.0" encoding="utf-8"?>
<!-- Generator: Adobe Illustrator 28.3.0, SVG Export Plug-In . SVG Version: 6.00 Build 0)  -->
<svg version="1.1" id="Capa_1" xmlns="http://www.w3.org/2000/svg" xmlns:xlink="http://www.w3.org/1999/xlink" x="0px" y="0px"
	 viewBox="0 0 100 100" style="enable-background:new 0 0 100 100;" xml:space="preserve">
<style type="text/css">
	.st0{fill:#FFFFFF;}
</style>
<path class="st0" d="M50,98.6L50,98.6C23.2,98.6,1.4,76.8,1.4,50v0C1.4,23.2,23.2,1.4,50,1.4h0c26.8,0,48.6,21.7,48.6,48.6v0
	C98.6,76.8,76.8,98.6,50,98.6z"/>
<g>
	<g id="_x32_009_x2C__Analytics_x2C__Business_x2C__Presentation_00000124157239337934474550000016968843322288756125_">
		<g>
			<path d="M77.6,68.3H73V34.6h3.4c0.6,0,1.2-0.5,1.2-1.1v-5.6c0-0.6-0.5-1.1-1.2-1.1H26.6c-0.6,0-1.2,0.5-1.2,1.1v5.6
				c0,0.6,0.5,1.1,1.2,1.1H30v33.6h-4.5c-0.6,0-1.2,0.5-1.2,1.1c0,0.6,0.5,1.1,1.2,1.1c0.2,0,24.4,0,24.9,0V74
				c-1.3,0.4-2.2,1.7-2.2,3.2c0,1.8,1.5,3.3,3.4,3.3c1.9,0,3.4-1.5,3.4-3.3c0-1.5-1-2.7-2.2-3.2v-3.5c0.5,0,24.7,0,24.9,0
				c0.6,0,1.2-0.5,1.2-1.1C78.7,68.7,78.2,68.3,77.6,68.3z M51.5,78.3c-0.6,0-1.2-0.5-1.2-1.1c0-0.6,0.5-1.1,1.2-1.1
				c0.6,0,1.2,0.5,1.2,1.1C52.7,77.8,52.1,78.3,51.5,78.3z M27.7,29.1h47.6v3.3c-0.8,0-46.9,0-47.6,0V29.1z M32.2,68.3V43.6h5.7
				c0.6,0,1.2-0.5,1.2-1.1c0-0.6-0.5-1.1-1.2-1.1h-5.7v-2.2h7.9c0.6,0,1.2-0.5,1.2-1.1c0-0.6-0.5-1.1-1.2-1.1h-7.9v-2.2h38.5v23.6
				h-6.8c-0.6,0-1.2,0.5-1.2,1.1c0,0.6,0.5,1.1,1.2,1.1h6.8v2.2h-7.9c-0.6,0-1.2,0.5-1.2,1.1c0,0.6,0.5,1.1,1.2,1.1h7.9v3.3H32.2
				L32.2,68.3z"/>
			<path d="M51.5,39.1c-6.8,0-12.4,5.5-12.4,12.3c0,6.8,5.6,12.3,12.4,12.3c6.8,0,12.4-5.5,12.4-12.3C63.9,44.6,58.3,39.1,51.5,39.1
				z M51.5,61.5c-5.6,0-10.2-4.5-10.2-10s4.5-10.1,10.2-10.1c5.6,0,10.2,4.5,10.2,10.1C61.7,57,57.1,61.5,51.5,61.5z"/>
			<path d="M56.7,50.5L49.9,46c-0.4-0.3-0.8-0.3-1.2-0.1c-0.4,0.2-0.6,0.6-0.6,1v9c0,0.4,0.3,0.8,0.6,1c0.4,0.2,0.8,0.2,1.2-0.1
				l6.8-4.5c0.4-0.2,0.5-0.5,0.5-1C57.2,51,57,50.7,56.7,50.5z M50.3,53.8v-4.7l3.6,2.4L50.3,53.8z"/>
		</g>
	</g>
	<g id="Layer_1_00000150788173914500797920000007300582612655823790_">
	</g>
</g>
</svg>
