<?xml version="1.0" encoding="utf-8"?>
<!-- Generator: Adobe Illustrator 28.3.0, SVG Export Plug-In . SVG Version: 6.00 Build 0)  -->
<svg version="1.1" id="Capa_1" xmlns="http://www.w3.org/2000/svg" xmlns:xlink="http://www.w3.org/1999/xlink" x="0px" y="0px"
	 viewBox="0 0 100 100" style="enable-background:new 0 0 100 100;" xml:space="preserve">
<style type="text/css">
	.st0{fill:#FFFFFF;}
	.st1{fill:#1E1E1E;}
	.st2{fill:none;}
</style>
<path class="st0" d="M50,98.6L50,98.6C23.2,98.6,1.4,76.8,1.4,50l0,0C1.4,23.2,23.2,1.4,50,1.4l0,0c26.8,0,48.6,21.7,48.6,48.6l0,0
	C98.6,76.8,76.8,98.6,50,98.6z"/>
<g>
	<polygon class="st1" points="18.4,47.8 36.1,47.8 30.8,41.4 38,41.4 44.8,49.7 37.8,58.6 31,58.6 35.8,52.5 18.4,52.5 	"/>
	<g>
		<polygon class="st2" points="45.6,63.9 38.5,63.9 38.5,67.4 68.3,67.4 68.3,32.6 38.5,32.6 38.5,36.9 45.6,36.9 		"/>
		<polygon class="st1" points="32.5,26.6 32.5,36.9 38.5,36.9 38.5,32.6 68.3,32.6 68.3,67.4 38.5,67.4 38.5,63.9 32.5,63.9 
			32.5,73.4 74.3,73.4 74.3,26.6 		"/>
	</g>
</g>
</svg>
