<?xml version="1.0" encoding="utf-8"?>
<!-- Generator: Adobe Illustrator 28.3.0, SVG Export Plug-In . SVG Version: 6.00 Build 0)  -->
<svg version="1.1" id="Capa_1" xmlns="http://www.w3.org/2000/svg" xmlns:xlink="http://www.w3.org/1999/xlink" x="0px" y="0px"
	 viewBox="0 0 100 100" style="enable-background:new 0 0 100 100;" xml:space="preserve">
<style type="text/css">
	.st0{fill:#FFFFFF;}
</style>
<path class="st0" d="M50,98.6L50,98.6C23.2,98.6,1.4,76.8,1.4,50v0C1.4,23.2,23.2,1.4,50,1.4h0c26.8,0,48.6,21.7,48.6,48.6v0
	C98.6,76.8,76.8,98.6,50,98.6z"/>
<g>
	<g id="_x32_018_x2C__Building_x2C__Business_x2C__City_x2C__Global_x2C__Headquarter">
		<g>
			<path d="M77.3,46.6c0-0.6-0.5-1.2-1.2-1.2h-6.8V33c0-0.6-0.5-1.2-1.2-1.2h-8v-3.4c0-0.6-0.5-1.2-1.2-1.2h-1.2v-3.4
				c0-0.6-0.5-1.2-1.2-1.2h-3.4v-2.2c0-0.6-0.5-1.2-1.2-1.2s-1.2,0.5-1.2,1.2v2.2h-3.3c-0.6,0-1.2,0.5-1.2,1.2v3.4h-1.2
				c-0.6,0-1.2,0.5-1.2,1.2v1.2h-8c-0.6,0-1.2,0.5-1.2,1.2v14.8H23.3c-0.6,0-1.2,0.5-1.2,1.2c0,7.3,2.9,14.2,8.1,19.2
				c2.4,2.4,5.3,4.4,8.5,5.7H23.4c-0.6,0-1.2,0.5-1.2,1.2c0,0.6,0.5,1.2,1.2,1.2h52.8c0.6,0,1.2-0.5,1.2-1.2c0-0.6-0.5-1.2-1.2-1.2
				H60.9C70.4,67.4,77.3,57.8,77.3,46.6z M60.1,47.8c3.1,0,11.7,0,14.8,0c-0.6,2.1-3.1,4.2-6.8,5.9c-2.4,1.1-5.3,1.9-8.5,2.4
				C59.8,53.4,60,50.6,60.1,47.8z M66.9,34.1v11.3h-6.8V34.1H66.9z M48.5,25h6.8v2.2h-6.8V25L48.5,25z M46.3,29.6
				c1.6,0,9.8,0,11.4,0c0,1.6,0,14.2,0,15.9h-4.6c-0.6,0-1.2,0.5-1.2,1.2s0.5,1.2,1.2,1.2h4.6c-0.1,3.1-0.3,6-0.6,8.6
				c-2,0.3-4.1,0.4-6.2,0.4v-6.8c0-0.6-0.5-1.2-1.2-1.2c-0.6,0-1.2,0.5-1.2,1.2v6.8c-2.2,0-4.2-0.2-6.2-0.4
				c-0.4-2.6-0.6-5.5-0.6-8.6h4.6c0.6,0,1.2-0.5,1.2-1.2s-0.5-1.2-1.2-1.2C46.3,43,46.3,31.5,46.3,29.6z M42.8,58.7
				c1.9,0.2,3.9,0.4,5.9,0.4v12.2C46.3,70.1,44,65.5,42.8,58.7z M50.9,71.3V59.1c2,0,4-0.2,5.9-0.4C55.4,65.5,53.1,70.1,50.9,71.3z
				 M39.3,47.8c0,2.9,0.3,5.6,0.6,8.3c-3.2-0.5-6-1.3-8.5-2.4c-3.8-1.6-6.2-3.7-6.8-5.9H39.3z M37.1,31.8h6.8v13.6h-6.8V31.8z
				 M25.1,52.4c3.8,3.4,10.2,5.2,15.2,6c0.7,4.1,2.2,9.5,4.8,12.8C35.3,69.3,27.5,61.9,25.1,52.4z M54.3,71.2
				c2.6-3.3,4.1-8.7,4.8-12.8c5-0.8,11.4-2.6,15.2-6C72,61.9,64.1,69.3,54.3,71.2z"/>
			<rect x="48.5" y="45.4" width="2.3" height="2.2"/>
			<rect x="62.3" y="37.5" width="2.3" height="2.2"/>
			<rect x="50.9" y="31.8" width="2.3" height="2.2"/>
			<rect x="50.9" y="36.4" width="2.3" height="2.2"/>
			<rect x="50.9" y="40.9" width="2.3" height="2.2"/>
			<rect x="39.3" y="34.1" width="2.3" height="2.2"/>
			<rect x="39.3" y="39.8" width="2.3" height="2.2"/>
			<path d="M62.3,26.2h3.4c0.6,0,1.2-0.5,1.2-1.2c0-0.6-0.5-1.2-1.2-1.2c0-1.2,1-2.2,2.3-2.2c1.3,0,2.3,1,2.3,2.2
				c-0.6,0-1.2,0.5-1.2,1.2c0,0.6,0.5,1.2,1.2,1.2H76c0.6,0,1.2-0.5,1.2-1.2c0-0.6-0.5-1.2-1.2-1.2h-3.3c0-2.5-2.1-4.5-4.6-4.5
				s-4.6,2-4.6,4.5h-1.2c-0.6,0-1.2,0.5-1.2,1.2C61.1,25.7,61.7,26.2,62.3,26.2z"/>
			<path d="M26.7,26.2h9.2c0.6,0,1.2-0.5,1.2-1.2c0-0.6-0.5-1.2-1.2-1.2h-9.2c-0.6,0-1.2,0.5-1.2,1.2C25.6,25.7,26.1,26.2,26.7,26.2
				z"/>
			<path d="M26.7,30.7h4.6c0.6,0,1.2-0.5,1.2-1.2c0-0.6-0.5-1.2-1.2-1.2h-4.6c-0.6,0-1.2,0.5-1.2,1.2C25.6,30.2,26.1,30.7,26.7,30.7
				z"/>
		</g>
	</g>
	<g id="Layer_1_00000106144302211854216850000016029457806833933733_">
	</g>
</g>
</svg>
