<?xml version="1.0" encoding="utf-8"?>
<!-- Generator: Adobe Illustrator 28.3.0, SVG Export Plug-In . SVG Version: 6.00 Build 0)  -->
<svg version="1.1" id="Capa_1" xmlns="http://www.w3.org/2000/svg" xmlns:xlink="http://www.w3.org/1999/xlink" x="0px" y="0px"
	 viewBox="0 0 100 100" style="enable-background:new 0 0 100 100;" xml:space="preserve">
<style type="text/css">
	.st0{fill:#FFFFFF;}
</style>
<path class="st0" d="M50,98.6L50,98.6C23.2,98.6,1.4,76.8,1.4,50v0C1.4,23.2,23.2,1.4,50,1.4h0c26.8,0,48.6,21.7,48.6,48.6v0
	C98.6,76.8,76.8,98.6,50,98.6z"/>
<g>
	<g id="_x32_021_x2C__Congress_x2C__Flag_x2C__Flags_x2C__Global_x2C__International">
		<g>
			<path d="M76.5,71.4H34V50.1c3.8-0.5,17.2-2,24.3,1.2c4.3,1.9,7.9,1.9,10.7,0.9c2.4-0.9,3.7-2.4,3.8-2.4c0.2-0.2,0.3-0.5,0.3-0.7
				v-22c0-0.5-0.3-0.9-0.7-1.1c-0.5-0.2-1,0-1.3,0.4c0,0-3.9,4.4-11.6,0.8c-7.5-3.4-20.9-2-25.3-1.5v-1c0-0.6-0.6-1.2-1.2-1.2H27
				c-0.6,0-1.2,0.5-1.2,1.2v46.7h-3.5c-0.6,0-1.2,0.5-1.2,1.2c0,0.6,0.6,1.2,1.2,1.2c3,0,53.6,0,54.3,0c0.6,0,1.2-0.5,1.2-1.2
				C77.7,72,77.2,71.4,76.5,71.4z M58.4,29.3c5,2.3,9.3,1.9,12.3,0.2v19c-1,0.9-4.7,3.6-11.3,0.5c-7.5-3.4-20.9-2-25.3-1.5V28.1
				C37.8,27.6,51.3,26.1,58.4,29.3z M28.2,71.4V25.9h3.5v45.5H28.2z"/>
			<path d="M65.9,24.8c1.9,0,3.5-1.6,3.5-3.5c0-1.9-1.6-3.5-3.5-3.5c-1.9,0-3.5,1.6-3.5,3.5C62.4,23.1,63.9,24.8,65.9,24.8z
				 M65.9,20.1c0.6,0,1.2,0.5,1.2,1.2c0,0.6-0.6,1.1-1.2,1.1s-1.2-0.5-1.2-1.2C64.8,20.6,65.2,20.1,65.9,20.1z"/>
			<path d="M55.3,59.8c0,1.9,1.6,3.5,3.5,3.5c1.9,0,3.5-1.6,3.5-3.5c0-1.9-1.6-3.5-3.5-3.5C56.9,56.3,55.3,57.9,55.3,59.8z M60,59.8
				c0,0.6-0.6,1.2-1.2,1.2c-0.6,0-1.2-0.5-1.2-1.2s0.6-1.2,1.2-1.2C59.5,58.6,60,59.1,60,59.8z"/>
			<path d="M41.1,51.6c-1.9,0-3.5,1.6-3.5,3.5c0,1.9,1.6,3.5,3.5,3.5c1.9,0,3.5-1.6,3.5-3.5C44.7,53.2,43.1,51.6,41.1,51.6z
				 M41.1,56.3c-0.6,0-1.2-0.5-1.2-1.2s0.6-1.2,1.2-1.2c0.6,0,1.2,0.5,1.2,1.2S41.8,56.3,41.1,56.3z"/>
			<path d="M38.7,44.6c0.6,0,1.2-0.6,1.2-1.2V31.8c0-0.6-0.6-1.2-1.2-1.2s-1.2,0.5-1.2,1.2v11.7C37.6,44.1,38.1,44.6,38.7,44.6z"/>
			<path d="M47.2,32.9c3.3-0.4,8.6-0.1,9.4,1.6c0.5,1.1,1.6,2.2,4.2,2.2c0.6,0,1.5-0.1,2.4-0.3c2.3-0.5,4.4-1.3,4.4-1.3
				c0.6-0.3,0.9-0.9,0.6-1.6c-0.3-0.5-0.9-0.9-1.6-0.6c-2.4,1-7.2,2.2-7.9,0.6c-0.8-1.8-3.1-2.8-6.9-3.1c-2.6-0.2-4.9,0.1-5,0.1
				c-0.6,0.1-1.1,0.6-1,1.3C46,32.5,46.5,32.9,47.2,32.9z"/>
			<rect x="71.8" y="56.3" width="2.3" height="2.3"/>
			<rect x="71.8" y="61" width="2.3" height="2.3"/>
			<rect x="74.2" y="58.6" width="2.3" height="2.3"/>
			<rect x="69.5" y="58.6" width="2.3" height="2.3"/>
			<rect x="47.1" y="61" width="2.3" height="2.3"/>
			<rect x="47.1" y="65.6" width="2.3" height="2.3"/>
			<rect x="49.4" y="63.3" width="2.3" height="2.3"/>
			<rect x="44.7" y="63.3" width="2.3" height="2.3"/>
		</g>
	</g>
	<g id="Layer_1_00000041289791833008463730000013564350096214282149_">
	</g>
</g>
</svg>
