<?xml version="1.0" encoding="utf-8"?>
<!-- Generator: Adobe Illustrator 28.3.0, SVG Export Plug-In . SVG Version: 6.00 Build 0)  -->
<svg version="1.1" id="Capa_1" xmlns="http://www.w3.org/2000/svg" xmlns:xlink="http://www.w3.org/1999/xlink" x="0px" y="0px"
	 viewBox="0 0 200 200" style="enable-background:new 0 0 200 200;" xml:space="preserve">
<style type="text/css">
	.st0{fill:#FFFFFF;}
	.st1{fill-rule:evenodd;clip-rule:evenodd;fill:#FFFFFF;}
</style>
<g>
	<path class="st0" d="M100,14.78c46.99,0,85.22,38.23,85.22,85.22c0,46.99-38.23,85.22-85.22,85.22
		c-46.99,0-85.22-38.23-85.22-85.22C14.78,53.01,53.01,14.78,100,14.78 M100,1.26C45.47,1.26,1.26,45.47,1.26,100
		s44.21,98.74,98.74,98.74c54.53,0,98.74-44.21,98.74-98.74S154.53,1.26,100,1.26L100,1.26z"/>
	<path class="st1" d="M112.7,63.34c3.59-0.12,7.18-0.03,10.78-0.03c0.44,0,0.88,0,1.48,0V44.62c-1.92-0.19-3.93-0.47-5.93-0.57
		c-3.68-0.16-7.37-0.35-11.06-0.26c-5.63,0.12-10.96,1.49-15.61,4.82c-5.34,3.84-8.27,9.23-9.38,15.6
		c-0.46,2.63-0.58,5.35-0.65,8.02c-0.1,4.19-0.02,8.38-0.01,12.58v1.57H64.44v20.87h17.77v52.45h21.72v-52.37h17.71
		c0.91-6.94,1.79-13.81,2.73-20.96c-1.42,0-2.7,0-3.98,0c-5.04,0.02-16.6,0-16.6,0s0.05-10.34,0.17-14.83
		C104.13,65.39,107.78,63.51,112.7,63.34z"/>
</g>
</svg>
