<?xml version="1.0" standalone="no"?>
<!DOCTYPE svg PUBLIC "-//W3C//DTD SVG 20010904//EN"
 "http://www.w3.org/TR/2001/REC-SVG-20010904/DTD/svg10.dtd">
<svg version="1.0" xmlns="http://www.w3.org/2000/svg"
 width="256.000000pt" height="256.000000pt" viewBox="0 0 256.000000 256.000000"
 preserveAspectRatio="xMidYMid meet">
<metadata>
Created by potrace 1.16, written by Peter Selinger 2001-2019
</metadata>
<g transform="translate(0.000000,256.000000) scale(0.100000,-0.100000)"
fill="#000000" stroke="none">
<path d="M310 2553 c-45 -18 -99 -67 -125 -115 l-30 -53 0 -1105 0 -1105 30
-53 c18 -34 47 -66 75 -85 l45 -32 975 0 975 0 45 32 c28 19 57 51 75 85 l30
53 0 1105 0 1105 -30 53 c-18 34 -47 66 -75 85 l-45 32 -965 2 c-531 1 -972
-1 -980 -4z m1785 -178 c49 -25 63 -39 84 -80 l26 -49 3 -941 c2 -656 -1 -956
-9 -993 -13 -67 -54 -115 -117 -139 -44 -17 -97 -18 -807 -18 l-760 0 -50 25
c-54 27 -89 70 -105 131 -7 25 -9 367 -8 991 l3 953 25 43 c31 55 93 92 168
102 31 4 379 7 773 6 l715 -1 59 -30z"/>
<path d="M1050 2300 c-16 -16 -18 -25 -10 -40 10 -19 22 -20 245 -20 l235 0 6
27 c13 49 -7 53 -243 53 -200 0 -214 -1 -233 -20z"/>
<path d="M616 2128 c-14 -20 -16 -114 -16 -816 0 -528 3 -800 10 -813 10 -18
28 -19 663 -19 393 0 658 4 667 10 13 8 15 111 18 811 2 708 1 805 -13 825
l-15 24 -650 0 -649 0 -15 -22z m570 -232 c58 -49 20 -146 -57 -146 -41 0 -79
39 -79 82 1 76 80 113 136 64z m619 -21 c44 -43 31 -112 -25 -135 -42 -17 -88
2 -106 46 -35 84 68 153 131 89z m-334 -284 c31 -31 36 -55 18 -94 -12 -27
-47 -47 -80 -47 -30 0 -79 53 -79 85 0 16 12 38 29 56 18 17 40 29 56 29 16 0
38 -12 56 -29z m-563 -134 c29 -27 30 -82 0 -114 -47 -50 -138 -15 -138 53 0
48 9 65 44 80 36 15 62 10 94 -19z m320 -374 l2 -283 -100 0 -100 0 0 273 c0
203 3 276 12 285 9 9 40 12 98 10 l85 -3 3 -282z m550 0 l2 -283 -100 0 -100
0 0 273 c0 203 3 276 12 285 9 9 40 12 98 10 l85 -3 3 -282z m-264 151 c3 -9
6 -110 6 -225 l0 -210 -102 3 -103 3 -3 209 c-2 145 1 213 9 222 18 21 185 20
193 -2z m-580 -220 c13 -5 16 -25 16 -110 l0 -104 -100 0 -100 0 0 103 c0 57
3 107 7 110 8 9 156 9 177 1z"/>
<path d="M1225 418 c-57 -31 -75 -120 -35 -171 44 -56 136 -56 180 0 26 33 27
109 2 139 -34 42 -102 57 -147 32z"/>
</g>
</svg>
