<?xml version="1.0" encoding="utf-8"?>
<!-- Generator: Adobe Illustrator 28.3.0, SVG Export Plug-In . SVG Version: 6.00 Build 0)  -->
<svg version="1.1" id="Capa_1" xmlns="http://www.w3.org/2000/svg" xmlns:xlink="http://www.w3.org/1999/xlink" x="0px" y="0px"
	 viewBox="0 0 200 200" style="enable-background:new 0 0 200 200;" xml:space="preserve">
<style type="text/css">
	.st0{fill:#FFFFFF;}
</style>
<g>
	<path class="st0" d="M100,14.78c46.99,0,85.22,38.23,85.22,85.22c0,46.99-38.23,85.22-85.22,85.22
		c-46.99,0-85.22-38.23-85.22-85.22C14.78,53.01,53.01,14.78,100,14.78 M100,1.26C45.47,1.26,1.26,45.47,1.26,100
		s44.21,98.74,98.74,98.74s98.74-44.21,98.74-98.74S154.53,1.26,100,1.26L100,1.26z"/>
	<path class="st0" d="M152.49,74.15c-0.7-6.88-3.34-12.97-8.46-17.85c-5.38-5.14-11.96-7.4-19.18-7.79
		c-12.29-0.67-41.48-1.09-51.73,0.58C61.41,51,53.73,57.83,50.49,69.4c-2.49,8.9-2,49.92-0.54,58.71
		c1.98,12.03,9.09,19.74,21.01,22.81c8.25,2.13,48.8,1.86,57.9,0.38c12.04-1.95,19.78-9.02,22.91-20.92
		C154.16,121.26,153.33,82.39,152.49,74.15z M142.86,126.41c-1.4,9.14-7.46,14.8-16.65,15.8c-8.44,0.92-46.11,1.43-53.94-0.75
		c-7.48-2.09-11.77-7.24-13.01-14.77c-1.19-7.2-1.48-43.16-0.02-52.78c1.38-9.06,7.44-14.71,16.57-15.73
		c9.27-1.04,42.61-1.15,51.49,0.21c9.12,1.4,14.77,7.48,15.77,16.68C144.01,83.63,144.28,117.19,142.86,126.41z M101.05,73.38
		c-14.81-0.01-26.83,11.99-26.83,26.8c-0.01,14.81,11.99,26.83,26.8,26.83s26.83-11.99,26.83-26.8
		C127.86,85.4,115.86,73.39,101.05,73.38z M100.87,117.53c-9.58-0.09-17.27-7.92-17.19-17.5c0.09-9.58,7.92-17.27,17.5-17.19
		c9.58,0.09,17.27,7.92,17.19,17.5C118.28,109.92,110.44,117.61,100.87,117.53z M135.19,72.37c-0.01,3.47-2.83,6.27-6.29,6.26
		c-3.47-0.01-6.27-2.83-6.26-6.29c0.01-3.47,2.83-6.27,6.29-6.26C132.4,66.08,135.2,68.9,135.19,72.37z"/>
	<path class="st0" d="M152.49,74.15c-0.7-6.88-3.34-12.97-8.46-17.85c-5.38-5.14-11.96-7.4-19.18-7.79
		c-12.29-0.67-41.48-1.09-51.73,0.58C61.41,51,53.73,57.83,50.49,69.4c-2.49,8.9-2,49.92-0.54,58.71
		c1.98,12.03,9.09,19.74,21.01,22.81c8.25,2.13,48.8,1.86,57.9,0.38c12.04-1.95,19.78-9.02,22.91-20.92
		C154.16,121.26,153.33,82.39,152.49,74.15z M142.86,126.41c-1.4,9.14-7.46,14.8-16.65,15.8c-8.44,0.92-46.11,1.43-53.94-0.75
		c-7.48-2.09-11.77-7.24-13.01-14.77c-1.19-7.2-1.48-43.16-0.02-52.78c1.38-9.06,7.44-14.71,16.57-15.73
		c9.27-1.04,42.61-1.15,51.49,0.21c9.12,1.4,14.77,7.48,15.77,16.68C144.01,83.63,144.28,117.19,142.86,126.41z M101.05,73.38
		c-14.81-0.01-26.83,11.99-26.83,26.8c-0.01,14.81,11.99,26.83,26.8,26.83s26.83-11.99,26.83-26.8
		C127.86,85.4,115.86,73.39,101.05,73.38z M100.87,117.53c-9.58-0.09-17.27-7.92-17.19-17.5c0.09-9.58,7.92-17.27,17.5-17.19
		c9.58,0.09,17.27,7.92,17.19,17.5C118.28,109.92,110.44,117.61,100.87,117.53z M135.19,72.37c-0.01,3.47-2.83,6.27-6.29,6.26
		c-3.47-0.01-6.27-2.83-6.26-6.29c0.01-3.47,2.83-6.27,6.29-6.26C132.4,66.08,135.2,68.9,135.19,72.37z"/>
</g>
</svg>
