<?xml version="1.0" encoding="utf-8"?>
<!-- Generator: Adobe Illustrator 28.3.0, SVG Export Plug-In . SVG Version: 6.00 Build 0)  -->
<svg version="1.1" id="Capa_1" xmlns="http://www.w3.org/2000/svg" xmlns:xlink="http://www.w3.org/1999/xlink" x="0px" y="0px"
	 viewBox="0 0 100 100" style="enable-background:new 0 0 100 100;" xml:space="preserve">
<style type="text/css">
	.st0{fill:#49266A;}
	.st1{fill:#721D64;}
	.st2{fill:#8C1762;}
	.st3{fill:#ED0258;}
	.st4{fill:#C40B5C;}
</style>
<g>
	<path class="st0" d="M90.8,11.8c0-7.7-3.6-11.1-11.2-11.1c-19.7,0-39.4,0-59.2,0c-7.6,0-11.2,3.5-11.2,11.2c0,12.8,0,25.5,0,38.3
		c0,12.8,0,25.5,0,38.3c0,7.3,3.5,10.8,10.7,10.8c19.7,0,39.4,0,59.1,0c8.6,0,11.7-2.9,11.7-11.6C90.8,62.4,90.8,37.1,90.8,11.8z
		 M79.8,48.6C79.7,48.6,79.7,48.6,79.8,48.6c0,11.2-0.1,22.4,0,33.6c0,2.3-0.6,3.2-3,3.2c-17.9-0.1-35.8-0.1-53.7,0
		c-2.2,0-2.9-0.6-2.9-2.9c0.1-22.5,0.1-45,0-67.5c0-2.3,0.6-3.1,3-3.1c17.9,0.1,35.8,0.1,53.7,0c2.6,0,2.9,1,2.9,3.2
		C79.7,26.2,79.8,37.4,79.8,48.6z M41,4.5h18.3c0.9,0,1.6,0.6,1.8,1.5c0,0.1,0,0.2,0,0.4c0,1-0.8,1.8-1.8,1.8H41
		c-1,0-1.8-0.8-1.8-1.8c0-0.1,0-0.2,0-0.4C39.4,5.1,40.1,4.5,41,4.5z M50,97.3c-2.8,0-5.1-2.3-5.1-5.1c0-0.5,0.1-1,0.2-1.5
		c0.6-2.1,2.6-3.7,4.9-3.7s4.3,1.5,4.9,3.7c0.1,0.5,0.2,0.9,0.2,1.5C55.1,95,52.8,97.3,50,97.3z"/>
	<path class="st1" d="M34.2,61.5h-6.1c-0.7,0-1.4,0.6-1.4,1.3V71h8.8v-8.2C35.5,62.1,34.9,61.5,34.2,61.5z"/>
	<path class="st2" d="M46.6,46.2h-6.1c-0.7,0-1.3,0.6-1.3,1.3V71h8.8V47.5C47.9,46.8,47.3,46.2,46.6,46.2z"/>
	<path class="st3" d="M70.7,46.2h-6.1c-0.7,0-1.3,0.6-1.3,1.3V71H72V47.5C72,46.8,71.4,46.2,70.7,46.2z"/>
	<path class="st4" d="M52.9,51.3c-0.7,0-1.3,0.6-1.3,1.3V71h8.8V52.6c0-0.7-0.6-1.3-1.3-1.3C59,51.3,52.9,51.3,52.9,51.3z"/>
	<ellipse class="st0" cx="31.1" cy="44.7" rx="3.7" ry="3.7"/>
	<ellipse class="st0" cx="43.5" cy="25.7" rx="3.7" ry="3.7"/>
	<ellipse class="st0" cx="56" cy="38.8" rx="3.6" ry="3.6"/>
	<circle class="st0" cx="70.6" cy="26.4" r="3.7"/>
	<path class="st0" d="M33.5,39.6L33.5,39.6c0.5,0.3,1.2,0.3,1.5-0.2l6.2-8.5c0.3-0.4,0.2-1.1-0.3-1.4c-0.5-0.3-1.2-0.3-1.5,0.2
		l-6.2,8.5C32.9,38.6,33,39.2,33.5,39.6z"/>
	<path class="st0" d="M47.9,28.8l-0.4,0.4c-0.3,0.3-0.3,0.8-0.1,1.1l3.8,4.2c0.3,0.3,0.8,0.4,1.1,0.1l0.4-0.4
		c0.3-0.3,0.3-0.8,0.1-1.1l-3.8-4.2C48.8,28.6,48.3,28.5,47.9,28.8z"/>
	<path class="st0" d="M60.9,35.9c0.3,0.3,0.8,0.3,1.1,0l4.1-3.9c0.3-0.3,0.3-0.8,0-1.1l-0.4-0.4c-0.3-0.3-0.8-0.3-1.1,0l-4.1,3.9
		c-0.3,0.3-0.3,0.8,0,1.1L60.9,35.9z"/>
</g>
</svg>
