<?xml version="1.0" encoding="utf-8"?>
<!-- Generator: Adobe Illustrator 28.3.0, SVG Export Plug-In . SVG Version: 6.00 Build 0)  -->
<svg version="1.1" id="Capa_1" xmlns="http://www.w3.org/2000/svg" xmlns:xlink="http://www.w3.org/1999/xlink" x="0px" y="0px"
	 viewBox="0 0 500 500" style="enable-background:new 0 0 500 500;" xml:space="preserve">
<style type="text/css">
	.st0{fill:#49266A;}
	.st1{fill:url(#SVGID_1_);}
	.st2{fill:url(#SVGID_00000096742640848370353440000011974501641888126393_);}
	.st3{fill:url(#SVGID_00000112614952681129955560000004744414037878512787_);}
	.st4{fill:url(#SVGID_00000078746059010903693060000014355769987747703696_);}
	.st5{fill:url(#SVGID_00000137099272574231706340000003241998023311169953_);}
	.st6{fill:url(#SVGID_00000047739007631013257570000014216483012529397167_);}
	.st7{fill:url(#SVGID_00000052088472987648681270000010935377167504619671_);}
	.st8{fill:url(#SVGID_00000051384568628157949040000009946363380235499397_);}
	.st9{fill:url(#SVGID_00000132083085668676936540000003550363851265687481_);}
	.st10{fill:url(#SVGID_00000183944686068820480410000013157083919604464012_);}
	.st11{fill:url(#SVGID_00000149372427045740895030000007271317946540118961_);}
</style>
<g>
	<path class="st0" d="M325.86,107.69c-0.03-14.3-6.67-20.66-20.92-20.67c-36.68-0.04-73.36-0.04-110.03-0.01
		c-14.23,0.01-20.8,6.58-20.82,20.78c-0.04,23.77-0.01,47.53-0.01,71.3s-0.04,47.53,0.02,71.3c0.03,13.58,6.56,20.1,19.91,20.1
		c36.68,0,73.36-0.01,110.03,0c16,0,21.72-5.38,21.78-21.56C325.97,201.85,325.97,154.77,325.86,107.69z M305.35,176.14
		c-0.02,0-0.04,0-0.06,0c0,20.82-0.1,41.64,0.08,62.46c0.04,4.31-1.06,5.88-5.64,5.86c-33.27-0.18-66.55-0.17-99.82-0.02
		c-4.16,0.02-5.4-1.19-5.38-5.36c0.14-41.87,0.15-83.74,0.02-125.61c-0.01-4.3,1.04-5.86,5.64-5.83
		c33.28,0.18,66.56,0.17,99.83-0.01c4.76-0.03,5.47,1.82,5.43,6.05C305.23,134.49,305.35,155.31,305.35,176.14z M233.21,94.08h33.99
		c1.64,0,3.02,1.17,3.33,2.72c0.04,0.22,0.07,0.45,0.07,0.68c0,1.88-1.52,3.4-3.4,3.4h-33.99c-1.88,0-3.4-1.52-3.4-3.4
		c0-0.23,0.02-0.46,0.07-0.68C230.2,95.25,231.57,94.08,233.21,94.08z M250,266.73c-5.26,0-9.52-4.26-9.52-9.52
		c0-0.95,0.14-1.86,0.4-2.72c1.17-3.93,4.81-6.8,9.12-6.8s7.95,2.87,9.12,6.8c0.26,0.86,0.4,1.77,0.4,2.72
		C259.52,262.47,255.26,266.73,250,266.73z"/>
	<path class="st0" d="M220.51,200.12h-11.3c-1.38,0-2.51,1.12-2.51,2.51v15.17h16.31v-15.17
		C223.02,201.24,221.89,200.12,220.51,200.12z"/>
	<path class="st0" d="M243.62,171.57h-11.3c-1.38,0-2.51,1.12-2.51,2.51v43.72h16.31v-43.72C246.13,172.69,245,171.57,243.62,171.57
		z"/>
	<path class="st0" d="M288.48,171.57h-11.3c-1.38,0-2.51,1.12-2.51,2.51v43.72h16.31v-43.72
		C290.99,172.69,289.87,171.57,288.48,171.57z"/>
	<path class="st0" d="M255.43,181.09c-1.38,0-2.51,1.12-2.51,2.51v34.2h16.31v-34.2c0-1.38-1.12-2.51-2.51-2.51H255.43z"/>
	
		<ellipse transform="matrix(0.3827 -0.9239 0.9239 0.3827 -23.3615 302.7369)" class="st0" cx="214.86" cy="168.85" rx="6.8" ry="6.8"/>
	
		<ellipse transform="matrix(0.3827 -0.9239 0.9239 0.3827 23.5615 302.2689)" class="st0" cx="237.97" cy="133.5" rx="6.8" ry="6.8"/>
	
		<ellipse transform="matrix(0.7071 -0.7071 0.7071 0.7071 -35.2357 230.8815)" class="st0" cx="261.08" cy="157.97" rx="6.8" ry="6.8"/>
	<circle class="st0" cx="288.27" cy="134.86" r="6.8"/>
	<path class="st0" d="M219.33,159.38L219.33,159.38c0.91,0.64,2.13,0.5,2.73-0.3l11.56-15.72c0.59-0.81,0.33-1.98-0.58-2.62
		c-0.91-0.64-2.13-0.5-2.73,0.3l-11.56,15.72C218.15,157.57,218.41,158.75,219.33,159.38z"/>
	<path class="st0" d="M246.16,139.36l-0.79,0.71c-0.61,0.55-0.66,1.49-0.11,2.1l7.02,7.81c0.55,0.61,1.49,0.66,2.1,0.11l0.79-0.71
		c0.61-0.55,0.66-1.49,0.11-2.1l-7.02-7.81C247.71,138.86,246.77,138.81,246.16,139.36z"/>
	<path class="st0" d="M270.22,152.48c0.57,0.59,1.51,0.62,2.1,0.05l7.61-7.24c0.59-0.57,0.62-1.51,0.05-2.1l-0.74-0.77
		c-0.57-0.59-1.51-0.62-2.1-0.05l-7.61,7.24c-0.59,0.57-0.62,1.51-0.05,2.1L270.22,152.48z"/>
</g>
<g>
	<path class="st0" d="M59,412.67v-20.79h2.75v18.33h10.24v2.45H59z"/>
	<path class="st0" d="M86.22,410.82c-0.95,0.8-1.86,1.37-2.73,1.7c-0.87,0.33-1.81,0.5-2.81,0.5c-1.65,0-2.93-0.4-3.81-1.21
		c-0.89-0.81-1.33-1.84-1.33-3.1c0-0.74,0.17-1.41,0.5-2.02c0.34-0.61,0.77-1.1,1.32-1.47c0.54-0.37,1.16-0.65,1.84-0.84
		c0.5-0.13,1.26-0.26,2.27-0.38c2.06-0.25,3.58-0.54,4.55-0.88c0.01-0.35,0.01-0.57,0.01-0.67c0-1.04-0.24-1.77-0.72-2.2
		c-0.65-0.58-1.62-0.86-2.91-0.86c-1.2,0-2.09,0.21-2.66,0.63c-0.57,0.42-0.99,1.16-1.27,2.23l-2.5-0.34
		c0.23-1.07,0.6-1.93,1.12-2.59c0.52-0.66,1.27-1.16,2.25-1.52c0.98-0.35,2.12-0.53,3.42-0.53c1.29,0,2.33,0.15,3.13,0.45
		c0.8,0.3,1.39,0.68,1.77,1.14c0.38,0.46,0.64,1.04,0.79,1.74c0.08,0.44,0.13,1.22,0.13,2.35v3.4c0,2.37,0.05,3.87,0.16,4.5
		c0.11,0.63,0.32,1.23,0.65,1.81h-2.67C86.46,412.14,86.29,411.53,86.22,410.82z M86,405.12c-0.93,0.38-2.32,0.7-4.17,0.96
		c-1.05,0.15-1.79,0.32-2.23,0.51c-0.43,0.19-0.77,0.46-1.01,0.83c-0.24,0.37-0.35,0.77-0.35,1.21c0,0.68,0.26,1.25,0.77,1.7
		c0.52,0.45,1.27,0.68,2.26,0.68c0.98,0,1.86-0.22,2.62-0.65c0.77-0.43,1.33-1.02,1.69-1.77c0.27-0.58,0.41-1.43,0.41-2.55V405.12z"
		/>
	<path class="st0" d="M96.35,412.67h-2.37v-20.79h2.55v7.42c1.08-1.35,2.45-2.03,4.13-2.03c0.93,0,1.8,0.19,2.63,0.56
		c0.83,0.37,1.51,0.9,2.04,1.57c0.53,0.68,0.95,1.49,1.26,2.45c0.3,0.95,0.45,1.98,0.45,3.06c0,2.58-0.64,4.57-1.91,5.98
		c-1.28,1.41-2.81,2.11-4.59,2.11c-1.78,0-3.17-0.74-4.18-2.23V412.67z M96.32,405.03c0,1.81,0.25,3.11,0.74,3.91
		c0.8,1.31,1.89,1.97,3.26,1.97c1.12,0,2.08-0.48,2.89-1.45c0.81-0.97,1.22-2.41,1.22-4.33c0-1.97-0.39-3.42-1.17-4.35
		c-0.78-0.94-1.72-1.4-2.83-1.4c-1.12,0-2.08,0.48-2.89,1.45C96.72,401.8,96.32,403.2,96.32,405.03z"/>
	<path class="st0" d="M110.64,405.15c0-2.79,0.78-4.85,2.33-6.19c1.3-1.12,2.87-1.67,4.74-1.67c2.07,0,3.76,0.68,5.08,2.04
		s1.97,3.23,1.97,5.62c0,1.94-0.29,3.46-0.87,4.57c-0.58,1.11-1.43,1.97-2.54,2.59c-1.11,0.61-2.32,0.92-3.64,0.92
		c-2.11,0-3.81-0.68-5.11-2.03C111.29,409.64,110.64,407.69,110.64,405.15z M113.27,405.15c0,1.93,0.42,3.37,1.26,4.33
		c0.84,0.96,1.9,1.44,3.18,1.44c1.27,0,2.32-0.48,3.16-1.45c0.84-0.97,1.26-2.43,1.26-4.41c0-1.86-0.42-3.27-1.27-4.23
		c-0.85-0.96-1.9-1.44-3.15-1.44c-1.28,0-2.33,0.48-3.18,1.43C113.69,401.78,113.27,403.22,113.27,405.15z"/>
	<path class="st0" d="M129.17,412.67v-15.06h2.3v2.28c0.59-1.07,1.13-1.77,1.62-2.11c0.5-0.34,1.04-0.51,1.64-0.51
		c0.86,0,1.73,0.27,2.62,0.82l-0.88,2.37c-0.62-0.37-1.25-0.55-1.87-0.55c-0.56,0-1.06,0.17-1.5,0.5c-0.44,0.34-0.76,0.8-0.95,1.4
		c-0.28,0.91-0.43,1.9-0.43,2.98v7.88H129.17z"/>
	<path class="st0" d="M150.14,410.82c-0.95,0.8-1.86,1.37-2.73,1.7c-0.87,0.33-1.81,0.5-2.81,0.5c-1.65,0-2.93-0.4-3.81-1.21
		c-0.89-0.81-1.33-1.84-1.33-3.1c0-0.74,0.17-1.41,0.5-2.02c0.34-0.61,0.77-1.1,1.32-1.47c0.54-0.37,1.16-0.65,1.84-0.84
		c0.5-0.13,1.26-0.26,2.27-0.38c2.06-0.25,3.58-0.54,4.55-0.88c0.01-0.35,0.01-0.57,0.01-0.67c0-1.04-0.24-1.77-0.72-2.2
		c-0.65-0.58-1.62-0.86-2.91-0.86c-1.2,0-2.09,0.21-2.66,0.63c-0.57,0.42-0.99,1.16-1.27,2.23l-2.5-0.34
		c0.23-1.07,0.6-1.93,1.12-2.59c0.52-0.66,1.27-1.16,2.25-1.52s2.12-0.53,3.42-0.53c1.29,0,2.33,0.15,3.13,0.45
		c0.8,0.3,1.39,0.68,1.77,1.14c0.38,0.46,0.64,1.04,0.79,1.74c0.08,0.44,0.13,1.22,0.13,2.35v3.4c0,2.37,0.05,3.87,0.16,4.5
		c0.11,0.63,0.32,1.23,0.65,1.81h-2.67C150.39,412.14,150.21,411.53,150.14,410.82z M149.93,405.12c-0.93,0.38-2.32,0.7-4.17,0.96
		c-1.05,0.15-1.79,0.32-2.23,0.51c-0.43,0.19-0.77,0.46-1.01,0.83c-0.24,0.37-0.35,0.77-0.35,1.21c0,0.68,0.26,1.25,0.77,1.7
		s1.27,0.68,2.26,0.68c0.98,0,1.86-0.22,2.62-0.65c0.77-0.43,1.33-1.02,1.69-1.77c0.27-0.58,0.41-1.43,0.41-2.55V405.12z"/>
	<path class="st0" d="M163.49,410.39l0.37,2.25c-0.72,0.15-1.36,0.23-1.93,0.23c-0.93,0-1.64-0.15-2.16-0.44
		c-0.51-0.29-0.87-0.68-1.08-1.16c-0.21-0.48-0.31-1.48-0.31-3.01v-8.66h-1.87v-1.98h1.87v-3.73l2.54-1.53v5.26h2.57v1.98h-2.57v8.8
		c0,0.73,0.05,1.19,0.13,1.4c0.09,0.21,0.24,0.37,0.44,0.5c0.2,0.12,0.49,0.18,0.87,0.18C162.65,410.49,163.02,410.46,163.49,410.39
		z"/>
	<path class="st0" d="M166.48,405.15c0-2.79,0.78-4.85,2.33-6.19c1.3-1.12,2.87-1.67,4.74-1.67c2.07,0,3.76,0.68,5.08,2.04
		c1.31,1.36,1.97,3.23,1.97,5.62c0,1.94-0.29,3.46-0.87,4.57c-0.58,1.11-1.43,1.97-2.54,2.59c-1.11,0.61-2.32,0.92-3.64,0.92
		c-2.11,0-3.81-0.68-5.11-2.03C167.13,409.64,166.48,407.69,166.48,405.15z M169.11,405.15c0,1.93,0.42,3.37,1.26,4.33
		c0.84,0.96,1.9,1.44,3.18,1.44c1.27,0,2.32-0.48,3.16-1.45c0.84-0.97,1.26-2.43,1.26-4.41c0-1.86-0.42-3.27-1.27-4.23
		c-0.85-0.96-1.9-1.44-3.15-1.44c-1.28,0-2.33,0.48-3.18,1.43C169.53,401.78,169.11,403.22,169.11,405.15z"/>
	<path class="st0" d="M185.01,412.67v-15.06h2.3v2.28c0.59-1.07,1.13-1.77,1.62-2.11c0.5-0.34,1.04-0.51,1.64-0.51
		c0.86,0,1.73,0.27,2.62,0.82l-0.88,2.37c-0.62-0.37-1.25-0.55-1.87-0.55c-0.56,0-1.06,0.17-1.5,0.5c-0.44,0.34-0.76,0.8-0.95,1.4
		c-0.28,0.91-0.43,1.9-0.43,2.98v7.88H185.01z"/>
	<path class="st0" d="M196.17,394.82v-2.94h2.55v2.94H196.17z M196.17,412.67v-15.06h2.55v15.06H196.17z"/>
	<path class="st0" d="M203.11,405.15c0-2.79,0.78-4.85,2.33-6.19c1.3-1.12,2.87-1.67,4.74-1.67c2.07,0,3.76,0.68,5.08,2.04
		c1.31,1.36,1.97,3.23,1.97,5.62c0,1.94-0.29,3.46-0.87,4.57c-0.58,1.11-1.43,1.97-2.54,2.59c-1.11,0.61-2.32,0.92-3.64,0.92
		c-2.11,0-3.81-0.68-5.11-2.03C203.76,409.64,203.11,407.69,203.11,405.15z M205.73,405.15c0,1.93,0.42,3.37,1.26,4.33
		c0.84,0.96,1.9,1.44,3.18,1.44c1.27,0,2.32-0.48,3.16-1.45c0.84-0.97,1.26-2.43,1.26-4.41c0-1.86-0.42-3.27-1.27-4.23
		c-0.85-0.96-1.9-1.44-3.15-1.44c-1.28,0-2.33,0.48-3.18,1.43C206.15,401.78,205.73,403.22,205.73,405.15z"/>
	<path class="st0" d="M240.95,412.67v-1.9c-0.96,1.49-2.36,2.24-4.21,2.24c-1.2,0-2.3-0.33-3.31-0.99
		c-1.01-0.66-1.78-1.59-2.34-2.77c-0.55-1.19-0.83-2.55-0.83-4.09c0-1.5,0.25-2.87,0.75-4.09c0.5-1.22,1.25-2.16,2.25-2.81
		c1-0.65,2.12-0.98,3.36-0.98c0.91,0,1.72,0.19,2.43,0.57c0.71,0.38,1.29,0.88,1.73,1.5v-7.46h2.54v20.79H240.95z M232.88,405.16
		c0,1.93,0.41,3.37,1.22,4.32c0.81,0.95,1.77,1.43,2.88,1.43c1.12,0,2.06-0.46,2.84-1.37c0.78-0.91,1.17-2.3,1.17-4.18
		c0-2.06-0.4-3.57-1.19-4.54c-0.79-0.96-1.77-1.45-2.94-1.45c-1.13,0-2.08,0.46-2.84,1.39
		C233.26,401.71,232.88,403.17,232.88,405.16z"/>
	<path class="st0" d="M259.08,407.83l2.64,0.33c-0.42,1.54-1.19,2.74-2.31,3.59c-1.12,0.85-2.56,1.28-4.31,1.28
		c-2.2,0-3.95-0.68-5.24-2.03c-1.29-1.36-1.94-3.26-1.94-5.71c0-2.53,0.65-4.5,1.96-5.9c1.3-1.4,3-2.1,5.08-2.1
		c2.01,0,3.66,0.69,4.93,2.06s1.91,3.3,1.91,5.78c0,0.15-0.01,0.38-0.01,0.68h-11.23c0.09,1.65,0.56,2.92,1.4,3.8
		c0.84,0.88,1.89,1.32,3.15,1.32c0.94,0,1.74-0.25,2.4-0.74C258.17,409.69,258.7,408.9,259.08,407.83z M250.7,403.7h8.41
		c-0.11-1.27-0.44-2.22-0.96-2.85c-0.81-0.98-1.87-1.48-3.16-1.48c-1.17,0-2.16,0.39-2.96,1.18
		C251.23,401.34,250.79,402.39,250.7,403.7z"/>
	<path class="st0" d="M276.11,412.67v-20.79h2.75v18.33h10.24v2.45H276.11z"/>
	<path class="st0" d="M293.51,394.82v-2.94h2.55v2.94H293.51z M293.51,412.67v-15.06h2.55v15.06H293.51z"/>
	<path class="st0" d="M311.22,407.16l2.51,0.33c-0.27,1.73-0.98,3.08-2.11,4.06c-1.13,0.98-2.52,1.47-4.16,1.47
		c-2.06,0-3.72-0.67-4.97-2.02c-1.25-1.35-1.88-3.28-1.88-5.79c0-1.62,0.27-3.05,0.81-4.27c0.54-1.22,1.36-2.13,2.46-2.74
		c1.1-0.61,2.3-0.91,3.59-0.91c1.64,0,2.97,0.41,4.01,1.24c1.04,0.83,1.71,2,2,3.52l-2.48,0.38c-0.24-1.01-0.65-1.77-1.25-2.28
		c-0.6-0.51-1.32-0.77-2.18-0.77c-1.29,0-2.33,0.46-3.13,1.38c-0.8,0.92-1.21,2.38-1.21,4.37c0,2.02,0.39,3.49,1.16,4.41
		c0.77,0.92,1.79,1.38,3.03,1.38c1,0,1.84-0.31,2.51-0.92C310.62,409.38,311.05,408.44,311.22,407.16z"/>
	<path class="st0" d="M317.38,394.82v-2.94h2.55v2.94H317.38z M317.38,412.67v-15.06h2.55v15.06H317.38z"/>
	<path class="st0" d="M330.85,410.39l0.37,2.25c-0.72,0.15-1.36,0.23-1.93,0.23c-0.93,0-1.64-0.15-2.15-0.44
		c-0.51-0.29-0.87-0.68-1.08-1.16c-0.21-0.48-0.31-1.48-0.31-3.01v-8.66h-1.87v-1.98h1.87v-3.73l2.54-1.53v5.26h2.57v1.98h-2.57v8.8
		c0,0.73,0.04,1.19,0.13,1.4c0.09,0.21,0.24,0.37,0.44,0.5c0.2,0.12,0.49,0.18,0.87,0.18C330.01,410.49,330.38,410.46,330.85,410.39
		z"/>
	<path class="st0" d="M344.62,410.82c-0.95,0.8-1.85,1.37-2.73,1.7c-0.87,0.33-1.81,0.5-2.81,0.5c-1.65,0-2.93-0.4-3.81-1.21
		c-0.89-0.81-1.33-1.84-1.33-3.1c0-0.74,0.17-1.41,0.5-2.02c0.34-0.61,0.78-1.1,1.32-1.47c0.54-0.37,1.16-0.65,1.83-0.84
		c0.5-0.13,1.26-0.26,2.27-0.38c2.06-0.25,3.58-0.54,4.55-0.88c0.01-0.35,0.01-0.57,0.01-0.67c0-1.04-0.24-1.77-0.72-2.2
		c-0.65-0.58-1.62-0.86-2.91-0.86c-1.2,0-2.09,0.21-2.66,0.63c-0.57,0.42-1,1.16-1.27,2.23l-2.5-0.34c0.23-1.07,0.6-1.93,1.12-2.59
		c0.52-0.66,1.27-1.16,2.25-1.52c0.98-0.35,2.12-0.53,3.42-0.53c1.29,0,2.33,0.15,3.13,0.45c0.8,0.3,1.39,0.68,1.77,1.14
		c0.38,0.46,0.64,1.04,0.79,1.74c0.08,0.44,0.13,1.22,0.13,2.35v3.4c0,2.37,0.05,3.87,0.16,4.5c0.11,0.63,0.32,1.23,0.64,1.81h-2.66
		C344.86,412.14,344.69,411.53,344.62,410.82z M344.4,405.12c-0.93,0.38-2.32,0.7-4.17,0.96c-1.05,0.15-1.79,0.32-2.23,0.51
		c-0.44,0.19-0.77,0.46-1.01,0.83c-0.24,0.37-0.35,0.77-0.35,1.21c0,0.68,0.26,1.25,0.77,1.7c0.52,0.45,1.27,0.68,2.26,0.68
		c0.98,0,1.86-0.22,2.62-0.65c0.76-0.43,1.33-1.02,1.69-1.77c0.27-0.58,0.41-1.43,0.41-2.55V405.12z"/>
	<path class="st0" d="M362.22,407.16l2.51,0.33c-0.27,1.73-0.98,3.08-2.11,4.06c-1.13,0.98-2.52,1.47-4.16,1.47
		c-2.06,0-3.72-0.67-4.97-2.02c-1.25-1.35-1.88-3.28-1.88-5.79c0-1.62,0.27-3.05,0.81-4.27c0.54-1.22,1.36-2.13,2.46-2.74
		c1.1-0.61,2.3-0.91,3.59-0.91c1.64,0,2.97,0.41,4.01,1.24c1.04,0.83,1.71,2,2,3.52l-2.48,0.38c-0.24-1.01-0.65-1.77-1.25-2.28
		c-0.6-0.51-1.32-0.77-2.18-0.77c-1.29,0-2.33,0.46-3.13,1.38c-0.8,0.92-1.21,2.38-1.21,4.37c0,2.02,0.39,3.49,1.16,4.41
		c0.77,0.92,1.79,1.38,3.03,1.38c1,0,1.84-0.31,2.51-0.92C361.61,409.38,362.04,408.44,362.22,407.16z"/>
	<path class="st0" d="M368.38,394.82v-2.94h2.55v2.94H368.38z M368.38,412.67v-15.06h2.55v15.06H368.38z"/>
	<path class="st0" d="M375.31,405.15c0-2.79,0.78-4.85,2.33-6.19c1.29-1.12,2.87-1.67,4.73-1.67c2.07,0,3.76,0.68,5.08,2.04
		c1.31,1.36,1.97,3.23,1.97,5.62c0,1.94-0.29,3.46-0.87,4.57c-0.58,1.11-1.43,1.97-2.54,2.59c-1.11,0.61-2.32,0.92-3.64,0.92
		c-2.11,0-3.81-0.68-5.11-2.03C375.96,409.64,375.31,407.69,375.31,405.15z M377.94,405.15c0,1.93,0.42,3.37,1.26,4.33
		c0.84,0.96,1.9,1.44,3.18,1.44c1.27,0,2.32-0.48,3.16-1.45c0.84-0.97,1.26-2.43,1.26-4.41c0-1.86-0.42-3.27-1.27-4.23
		c-0.85-0.96-1.9-1.44-3.16-1.44c-1.28,0-2.33,0.48-3.18,1.43C378.36,401.78,377.94,403.22,377.94,405.15z"/>
	<path class="st0" d="M393.87,412.67v-15.06h2.3v2.14c1.11-1.65,2.7-2.48,4.79-2.48c0.91,0,1.74,0.16,2.5,0.49
		c0.76,0.33,1.33,0.75,1.71,1.28c0.38,0.53,0.64,1.16,0.79,1.89c0.09,0.47,0.14,1.3,0.14,2.48v9.26h-2.55v-9.16
		c0-1.04-0.1-1.82-0.3-2.33c-0.2-0.52-0.55-0.93-1.06-1.23c-0.51-0.31-1.1-0.46-1.78-0.46c-1.09,0-2.02,0.35-2.81,1.04
		c-0.79,0.69-1.18,2-1.18,3.93v8.22H393.87z"/>
	<path class="st0" d="M421.77,407.83l2.64,0.33c-0.42,1.54-1.19,2.74-2.31,3.59c-1.12,0.85-2.56,1.28-4.31,1.28
		c-2.2,0-3.95-0.68-5.24-2.03c-1.29-1.36-1.94-3.26-1.94-5.71c0-2.53,0.65-4.5,1.96-5.9c1.3-1.4,3-2.1,5.08-2.1
		c2.01,0,3.66,0.69,4.93,2.06s1.91,3.3,1.91,5.78c0,0.15-0.01,0.38-0.01,0.68h-11.23c0.09,1.65,0.56,2.92,1.4,3.8
		c0.84,0.88,1.89,1.32,3.15,1.32c0.94,0,1.74-0.25,2.4-0.74C420.86,409.69,421.39,408.9,421.77,407.83z M413.39,403.7h8.41
		c-0.11-1.27-0.44-2.22-0.96-2.85c-0.81-0.98-1.87-1.48-3.16-1.48c-1.17,0-2.16,0.39-2.96,1.18
		C413.92,401.34,413.48,402.39,413.39,403.7z"/>
	<path class="st0" d="M428.05,408.18l2.52-0.4c0.14,1.01,0.54,1.79,1.18,2.32c0.65,0.54,1.55,0.81,2.71,0.81
		c1.17,0,2.04-0.24,2.61-0.72c0.57-0.48,0.85-1.04,0.85-1.68c0-0.58-0.25-1.03-0.75-1.36c-0.35-0.23-1.22-0.52-2.61-0.87
		c-1.87-0.47-3.17-0.88-3.89-1.23c-0.72-0.35-1.27-0.82-1.64-1.43c-0.37-0.61-0.56-1.28-0.56-2.02c0-0.67,0.15-1.29,0.46-1.86
		c0.31-0.57,0.73-1.05,1.25-1.42c0.4-0.29,0.94-0.54,1.62-0.74s1.42-0.31,2.21-0.31c1.18,0,2.22,0.17,3.11,0.51s1.55,0.8,1.98,1.38
		c0.42,0.58,0.72,1.36,0.88,2.33l-2.5,0.34c-0.11-0.78-0.44-1.38-0.99-1.81c-0.54-0.43-1.31-0.65-2.3-0.65
		c-1.17,0-2.01,0.19-2.51,0.58c-0.5,0.39-0.75,0.84-0.75,1.36c0,0.33,0.1,0.63,0.31,0.89c0.21,0.27,0.53,0.5,0.98,0.68
		c0.25,0.1,1.01,0.31,2.25,0.65c1.81,0.48,3.06,0.88,3.78,1.18c0.71,0.31,1.27,0.75,1.68,1.34c0.41,0.59,0.61,1.31,0.61,2.18
		c0,0.85-0.25,1.65-0.74,2.4s-1.21,1.33-2.15,1.74c-0.94,0.41-1.99,0.62-3.18,0.62c-1.96,0-3.45-0.41-4.47-1.22
		C428.98,410.98,428.33,409.78,428.05,408.18z"/>
</g>
<g>
	<g>
		<path d="M69.98,361.91c0,2.49-1.24,3.73-3.73,3.73H16.47c-2.49,0-3.73-1.24-3.73-3.73v-66.93c0-2.54,1.24-3.79,3.73-3.79
			c2.54,0,3.78,1.24,3.78,3.79v63.15h45.99C68.73,358.13,69.98,359.37,69.98,361.91z"/>
		<path d="M87.07,311.41c1.14,0,2.23,0.52,3.21,1.61c0.16,0.26,0.31,0.57,0.47,0.93c0.16,0.36,0.21,0.83,0.21,1.4v46.4
			c0,0.57-0.05,1.04-0.21,1.4c-0.16,0.36-0.31,0.67-0.52,0.93c-0.98,1.04-2.02,1.56-3.11,1.56c-0.98,0-1.87-0.47-2.64-1.19
			c-0.83-0.78-1.24-1.66-1.24-2.75v-46.4c0-1.09,0.41-1.92,1.24-2.7c0.78-0.73,1.66-1.19,2.64-1.19H87.07z"/>
		<path d="M90.07,300.73c0.73,0.39,1.09,0.86,1.09,1.4v4.33c0,0.49-0.36,0.96-1.14,1.37c-0.78,0.39-1.66,0.57-2.7,0.57
			c-1.14,0-2.07-0.21-2.75-0.6c-0.36-0.18-0.67-0.39-0.88-0.62c-0.21-0.23-0.31-0.47-0.31-0.7v-4.33c0-0.6,0.41-1.09,1.24-1.45v0.03
			c0.67-0.34,1.56-0.52,2.64-0.52C88.36,300.21,89.29,300.4,90.07,300.73z"/>
		<path d="M148.01,354.24c0,0.05,0,0.05,0,0.05s0,0,0,0.05c0.26,0.36,0.47,0.73,0.57,1.14c0.1,0.42,0.16,0.88,0.16,1.45
			c-0.05,1.19-0.57,2.07-1.5,2.59l0.05-0.05c-4.77,3.94-10.27,5.91-16.54,5.91c-7.21,0-13.48-2.49-18.67-7.67
			c-5.18-5.18-7.72-11.46-7.72-18.66c0-7.31,2.59-13.53,7.72-18.61c5.24-5.13,11.46-7.73,18.67-7.73c3.01,0,5.91,0.52,8.71,1.5
			c2.8,0.98,5.34,2.38,7.67,4.2c0.47,0.36,0.83,0.78,1.09,1.19c0.26,0.41,0.42,0.98,0.52,1.71c0,0.47-0.1,0.93-0.26,1.4
			c-0.16,0.47-0.36,0.88-0.62,1.3c-0.31,0.36-0.68,0.67-1.04,0.88c-0.36,0.21-0.83,0.36-1.4,0.42h-0.52c-0.78,0-1.56-0.26-2.33-0.83
			c-1.71-1.3-3.58-2.33-5.6-3.06c-2.02-0.73-4.04-1.09-6.12-1.09c-5.13,0-9.54,1.82-13.22,5.5c-3.68,3.68-5.5,8.09-5.5,13.22
			c0,5.19,1.82,9.59,5.5,13.22c3.63,3.63,8.04,5.44,13.22,5.44c4.51,0,8.45-1.4,11.82-4.15c0.73-0.57,1.45-0.88,2.23-0.88h0.52
			c1.09,0.16,1.97,0.67,2.64,1.56H148.01z"/>
		<path d="M169.61,311.41c1.14,0,2.23,0.52,3.21,1.61c0.16,0.26,0.31,0.57,0.47,0.93c0.16,0.36,0.21,0.83,0.21,1.4v46.4
			c0,0.57-0.05,1.04-0.21,1.4c-0.16,0.36-0.31,0.67-0.52,0.93c-0.98,1.04-2.02,1.56-3.11,1.56c-0.98,0-1.87-0.47-2.64-1.19
			c-0.83-0.78-1.24-1.66-1.24-2.75v-46.4c0-1.09,0.41-1.92,1.24-2.7c0.78-0.73,1.66-1.19,2.64-1.19H169.61z"/>
		<path d="M172.61,300.73c0.73,0.39,1.09,0.86,1.09,1.4v4.33c0,0.49-0.36,0.96-1.14,1.37c-0.78,0.39-1.66,0.57-2.7,0.57
			c-1.14,0-2.07-0.21-2.75-0.6c-0.36-0.18-0.67-0.39-0.88-0.62c-0.21-0.23-0.31-0.47-0.31-0.7v-4.33c0-0.6,0.41-1.09,1.24-1.45v0.03
			c0.67-0.34,1.56-0.52,2.64-0.52C170.9,300.21,171.84,300.4,172.61,300.73z"/>
		<path d="M213.81,357.87c1.04,0,1.97,0.41,2.75,1.19c0.78,0.73,1.19,1.61,1.19,2.7c0,1.09-0.42,2.02-1.19,2.8
			c-0.78,0.78-1.71,1.09-2.8,1.09c-7.47,0-13.84-2.54-19.18-7.78c-2.59-2.59-4.56-5.5-5.96-8.66c-1.4-3.16-2.33-6.64-2.33-10.42
			v-43.03c0-0.98,0.42-1.92,1.19-2.8c0.78-0.73,1.71-1.09,2.8-1.09c1.09,0,2.02,0.36,2.8,1.09c0.73,0.73,1.09,1.66,1.09,2.8v16.33
			h15.24c0.98,0,1.92,0.41,2.8,1.19c0.73,0.73,1.09,1.66,1.09,2.75c0,1.14-0.36,2.07-1.09,2.85c-0.88,0.67-1.82,1.04-2.8,1.04
			h-15.24v18.4c0,5.39,1.97,10.01,5.75,13.79c3.84,3.79,8.45,5.7,13.84,5.7L213.81,357.87z"/>
		<path d="M282.48,361.81c0,1.09-0.36,1.97-1.09,2.7c-0.78,0.78-1.66,1.14-2.7,1.14c-1.14,0-2.07-0.36-2.85-1.04
			c-0.67-0.78-1.04-1.71-1.04-2.8v-3.99c-0.73,0.67-1.55,1.4-2.49,2.13c-0.93,0.73-1.76,1.3-2.49,1.76
			c-2.07,1.3-4.25,2.28-6.53,2.96c-2.28,0.67-4.66,0.98-7.21,0.98c-7.31,0-13.53-2.59-18.71-7.78c-5.19-5.24-7.73-11.46-7.73-18.67
			c0-7.21,2.54-13.43,7.73-18.66c5.18-5.24,11.41-7.78,18.71-7.78c7.31,0,13.64,2.54,18.77,7.78c5.18,5.24,7.72,11.46,7.72,18.66
			v22.71L282.48,361.81z M269.41,352.47c3.68-3.68,5.5-8.09,5.5-13.22c0-5.13-1.81-9.59-5.5-13.38c-3.63-3.63-8.09-5.44-13.33-5.44
			c-5.18,0-9.64,1.76-13.27,5.44c-3.73,3.78-5.5,8.29-5.5,13.32c0,5.08,1.76,9.49,5.5,13.27c3.68,3.68,8.09,5.5,13.27,5.5
			C261.32,357.97,265.78,356.16,269.41,352.47z"/>
		<path d="M354.47,361.91c0,2.49-1.24,3.73-3.73,3.73h-49.77c-2.49,0-3.73-1.24-3.73-3.73v-66.93c0-2.54,1.24-3.79,3.73-3.79
			c2.54,0,3.79,1.24,3.79,3.79v63.15h45.99C353.23,358.13,354.47,359.37,354.47,361.91z"/>
		<path d="M419.1,361.81c0,1.09-0.36,1.97-1.09,2.7c-0.78,0.78-1.66,1.14-2.7,1.14c-1.14,0-2.07-0.36-2.85-1.04
			c-0.67-0.78-1.04-1.71-1.04-2.8v-3.99c-0.73,0.67-1.56,1.4-2.49,2.13c-0.93,0.73-1.76,1.3-2.49,1.76
			c-2.07,1.3-4.25,2.28-6.53,2.96c-2.28,0.67-4.67,0.98-7.21,0.98c-7.31,0-13.53-2.59-18.72-7.78c-5.18-5.24-7.72-11.46-7.72-18.67
			c0-7.21,2.54-13.43,7.72-18.66c5.18-5.24,11.41-7.78,18.72-7.78c7.31,0,13.63,2.54,18.77,7.78c5.18,5.24,7.73,11.46,7.73,18.66
			v22.71L419.1,361.81z M406.04,352.47c3.68-3.68,5.5-8.09,5.5-13.22c0-5.13-1.82-9.59-5.5-13.38c-3.63-3.63-8.09-5.44-13.32-5.44
			c-5.18,0-9.64,1.76-13.27,5.44c-3.73,3.78-5.5,8.29-5.5,13.32c0,5.08,1.76,9.49,5.5,13.27c3.68,3.68,8.09,5.5,13.27,5.5
			C397.95,357.97,402.41,356.16,406.04,352.47z"/>
		<path d="M460.46,312.19c7.41,0,13.74,2.59,18.98,7.83c5.24,5.24,7.83,11.51,7.83,18.87s-2.59,13.64-7.83,18.87
			c-5.24,5.24-11.56,7.88-18.93,7.88c-7.21,0-13.48-2.64-18.82-7.88c-5.29-5.24-7.83-11.51-7.83-18.82v-21.72c0-3.63,0-7.26,0-10.84
			c0-3.58,0-7.21,0-10.89c0-0.57,0.05-1.04,0.16-1.4c0.1-0.36,0.26-0.67,0.47-0.93c1.09-1.04,2.18-1.56,3.27-1.56
			c0.99,0,2.02,0.52,3.11,1.56c0.26,0.26,0.47,0.57,0.57,0.93c0.1,0.36,0.16,0.83,0.16,1.4v24.73c0.78-0.78,1.61-1.5,2.49-2.18
			c0.88-0.68,1.76-1.35,2.64-1.87c2.12-1.24,4.35-2.13,6.69-2.8s4.67-0.98,7.05-0.98V312.19z M460.46,358.07
			c5.34,0,9.85-1.87,13.53-5.55c3.68-3.68,5.5-8.14,5.5-13.38c0-5.29-1.81-9.75-5.5-13.43c-1.87-1.87-3.94-3.27-6.22-4.2
			c-2.28-0.93-4.72-1.4-7.31-1.4c-5.24,0-9.7,1.87-13.38,5.55c-3.63,3.68-5.44,8.14-5.44,13.38c0,5.24,1.76,9.7,5.44,13.43
			c3.68,3.68,8.14,5.55,13.38,5.55V358.07z"/>
	</g>
	<g>
		<linearGradient id="SVGID_1_" gradientUnits="userSpaceOnUse" x1="12.7386" y1="328.4181" x2="487.2614" y2="328.4181">
			<stop  offset="0" style="stop-color:#492568"/>
			<stop  offset="0.1118" style="stop-color:#522367"/>
			<stop  offset="0.2978" style="stop-color:#6C1E65"/>
			<stop  offset="0.535" style="stop-color:#951561"/>
			<stop  offset="0.8112" style="stop-color:#CE095B"/>
			<stop  offset="0.9944" style="stop-color:#F80057"/>
		</linearGradient>
		<path class="st1" d="M69.98,361.91c0,2.49-1.24,3.73-3.73,3.73H16.47c-2.49,0-3.73-1.24-3.73-3.73v-66.93
			c0-2.54,1.24-3.79,3.73-3.79c2.54,0,3.78,1.24,3.78,3.79v63.15h45.99C68.73,358.13,69.98,359.37,69.98,361.91z"/>
		
			<linearGradient id="SVGID_00000141428366006135543670000007356774047465121944_" gradientUnits="userSpaceOnUse" x1="12.7386" y1="328.4181" x2="487.2614" y2="328.4181">
			<stop  offset="0" style="stop-color:#492568"/>
			<stop  offset="0.1118" style="stop-color:#522367"/>
			<stop  offset="0.2978" style="stop-color:#6C1E65"/>
			<stop  offset="0.535" style="stop-color:#951561"/>
			<stop  offset="0.8112" style="stop-color:#CE095B"/>
			<stop  offset="0.9944" style="stop-color:#F80057"/>
		</linearGradient>
		<path style="fill:url(#SVGID_00000141428366006135543670000007356774047465121944_);" d="M87.07,311.41
			c1.14,0,2.23,0.52,3.21,1.61c0.16,0.26,0.31,0.57,0.47,0.93c0.16,0.36,0.21,0.83,0.21,1.4v46.4c0,0.57-0.05,1.04-0.21,1.4
			c-0.16,0.36-0.31,0.67-0.52,0.93c-0.98,1.04-2.02,1.56-3.11,1.56c-0.98,0-1.87-0.47-2.64-1.19c-0.83-0.78-1.24-1.66-1.24-2.75
			v-46.4c0-1.09,0.41-1.92,1.24-2.7c0.78-0.73,1.66-1.19,2.64-1.19H87.07z"/>
		
			<linearGradient id="SVGID_00000180325593027993955430000016155345717518866820_" gradientUnits="userSpaceOnUse" x1="12.7386" y1="328.4181" x2="487.2614" y2="328.4181">
			<stop  offset="0" style="stop-color:#492568"/>
			<stop  offset="0.1118" style="stop-color:#522367"/>
			<stop  offset="0.2978" style="stop-color:#6C1E65"/>
			<stop  offset="0.535" style="stop-color:#951561"/>
			<stop  offset="0.8112" style="stop-color:#CE095B"/>
			<stop  offset="0.9944" style="stop-color:#F80057"/>
		</linearGradient>
		<path style="fill:url(#SVGID_00000180325593027993955430000016155345717518866820_);" d="M90.07,300.73
			c0.73,0.39,1.09,0.86,1.09,1.4v4.33c0,0.49-0.36,0.96-1.14,1.37c-0.78,0.39-1.66,0.57-2.7,0.57c-1.14,0-2.07-0.21-2.75-0.6
			c-0.36-0.18-0.67-0.39-0.88-0.62c-0.21-0.23-0.31-0.47-0.31-0.7v-4.33c0-0.6,0.41-1.09,1.24-1.45v0.03
			c0.67-0.34,1.56-0.52,2.64-0.52C88.36,300.21,89.29,300.4,90.07,300.73z"/>
		
			<linearGradient id="SVGID_00000121240954366138897020000010892927294983168659_" gradientUnits="userSpaceOnUse" x1="12.7386" y1="328.4181" x2="487.2614" y2="328.4181">
			<stop  offset="0" style="stop-color:#492568"/>
			<stop  offset="0.1118" style="stop-color:#522367"/>
			<stop  offset="0.2978" style="stop-color:#6C1E65"/>
			<stop  offset="0.535" style="stop-color:#951561"/>
			<stop  offset="0.8112" style="stop-color:#CE095B"/>
			<stop  offset="0.9944" style="stop-color:#F80057"/>
		</linearGradient>
		<path style="fill:url(#SVGID_00000121240954366138897020000010892927294983168659_);" d="M148.01,354.24c0,0.05,0,0.05,0,0.05
			s0,0,0,0.05c0.26,0.36,0.47,0.73,0.57,1.14c0.1,0.42,0.16,0.88,0.16,1.45c-0.05,1.19-0.57,2.07-1.5,2.59l0.05-0.05
			c-4.77,3.94-10.27,5.91-16.54,5.91c-7.21,0-13.48-2.49-18.67-7.67c-5.18-5.18-7.72-11.46-7.72-18.66c0-7.31,2.59-13.53,7.72-18.61
			c5.24-5.13,11.46-7.73,18.67-7.73c3.01,0,5.91,0.52,8.71,1.5c2.8,0.98,5.34,2.38,7.67,4.2c0.47,0.36,0.83,0.78,1.09,1.19
			c0.26,0.41,0.42,0.98,0.52,1.71c0,0.47-0.1,0.93-0.26,1.4c-0.16,0.47-0.36,0.88-0.62,1.3c-0.31,0.36-0.68,0.67-1.04,0.88
			c-0.36,0.21-0.83,0.36-1.4,0.42h-0.52c-0.78,0-1.56-0.26-2.33-0.83c-1.71-1.3-3.58-2.33-5.6-3.06c-2.02-0.73-4.04-1.09-6.12-1.09
			c-5.13,0-9.54,1.82-13.22,5.5c-3.68,3.68-5.5,8.09-5.5,13.22c0,5.19,1.82,9.59,5.5,13.22c3.63,3.63,8.04,5.44,13.22,5.44
			c4.51,0,8.45-1.4,11.82-4.15c0.73-0.57,1.45-0.88,2.23-0.88h0.52c1.09,0.16,1.97,0.67,2.64,1.56H148.01z"/>
		
			<linearGradient id="SVGID_00000180362675943702398790000013303569999019162300_" gradientUnits="userSpaceOnUse" x1="12.7386" y1="328.4181" x2="487.2614" y2="328.4181">
			<stop  offset="0" style="stop-color:#492568"/>
			<stop  offset="0.1118" style="stop-color:#522367"/>
			<stop  offset="0.2978" style="stop-color:#6C1E65"/>
			<stop  offset="0.535" style="stop-color:#951561"/>
			<stop  offset="0.8112" style="stop-color:#CE095B"/>
			<stop  offset="0.9944" style="stop-color:#F80057"/>
		</linearGradient>
		<path style="fill:url(#SVGID_00000180362675943702398790000013303569999019162300_);" d="M169.61,311.41
			c1.14,0,2.23,0.52,3.21,1.61c0.16,0.26,0.31,0.57,0.47,0.93c0.16,0.36,0.21,0.83,0.21,1.4v46.4c0,0.57-0.05,1.04-0.21,1.4
			c-0.16,0.36-0.31,0.67-0.52,0.93c-0.98,1.04-2.02,1.56-3.11,1.56c-0.98,0-1.87-0.47-2.64-1.19c-0.83-0.78-1.24-1.66-1.24-2.75
			v-46.4c0-1.09,0.41-1.92,1.24-2.7c0.78-0.73,1.66-1.19,2.64-1.19H169.61z"/>
		
			<linearGradient id="SVGID_00000070812830000313225340000007751191783195993247_" gradientUnits="userSpaceOnUse" x1="12.7386" y1="328.4181" x2="487.2614" y2="328.4181">
			<stop  offset="0" style="stop-color:#492568"/>
			<stop  offset="0.1118" style="stop-color:#522367"/>
			<stop  offset="0.2978" style="stop-color:#6C1E65"/>
			<stop  offset="0.535" style="stop-color:#951561"/>
			<stop  offset="0.8112" style="stop-color:#CE095B"/>
			<stop  offset="0.9944" style="stop-color:#F80057"/>
		</linearGradient>
		<path style="fill:url(#SVGID_00000070812830000313225340000007751191783195993247_);" d="M172.61,300.73
			c0.73,0.39,1.09,0.86,1.09,1.4v4.33c0,0.49-0.36,0.96-1.14,1.37c-0.78,0.39-1.66,0.57-2.7,0.57c-1.14,0-2.07-0.21-2.75-0.6
			c-0.36-0.18-0.67-0.39-0.88-0.62c-0.21-0.23-0.31-0.47-0.31-0.7v-4.33c0-0.6,0.41-1.09,1.24-1.45v0.03
			c0.67-0.34,1.56-0.52,2.64-0.52C170.9,300.21,171.84,300.4,172.61,300.73z"/>
		
			<linearGradient id="SVGID_00000130646764115929390240000001111955453405326741_" gradientUnits="userSpaceOnUse" x1="12.7386" y1="328.4181" x2="487.2614" y2="328.4181">
			<stop  offset="0" style="stop-color:#492568"/>
			<stop  offset="0.1118" style="stop-color:#522367"/>
			<stop  offset="0.2978" style="stop-color:#6C1E65"/>
			<stop  offset="0.535" style="stop-color:#951561"/>
			<stop  offset="0.8112" style="stop-color:#CE095B"/>
			<stop  offset="0.9944" style="stop-color:#F80057"/>
		</linearGradient>
		<path style="fill:url(#SVGID_00000130646764115929390240000001111955453405326741_);" d="M213.81,357.87
			c1.04,0,1.97,0.41,2.75,1.19c0.78,0.73,1.19,1.61,1.19,2.7c0,1.09-0.42,2.02-1.19,2.8c-0.78,0.78-1.71,1.09-2.8,1.09
			c-7.47,0-13.84-2.54-19.18-7.78c-2.59-2.59-4.56-5.5-5.96-8.66c-1.4-3.16-2.33-6.64-2.33-10.42v-43.03c0-0.98,0.42-1.92,1.19-2.8
			c0.78-0.73,1.71-1.09,2.8-1.09c1.09,0,2.02,0.36,2.8,1.09c0.73,0.73,1.09,1.66,1.09,2.8v16.33h15.24c0.98,0,1.92,0.41,2.8,1.19
			c0.73,0.73,1.09,1.66,1.09,2.75c0,1.14-0.36,2.07-1.09,2.85c-0.88,0.67-1.82,1.04-2.8,1.04h-15.24v18.4
			c0,5.39,1.97,10.01,5.75,13.79c3.84,3.79,8.45,5.7,13.84,5.7L213.81,357.87z"/>
		
			<linearGradient id="SVGID_00000163754244341768888500000003578415529595138991_" gradientUnits="userSpaceOnUse" x1="12.7386" y1="328.4181" x2="487.2614" y2="328.4181">
			<stop  offset="0" style="stop-color:#492568"/>
			<stop  offset="0.1118" style="stop-color:#522367"/>
			<stop  offset="0.2978" style="stop-color:#6C1E65"/>
			<stop  offset="0.535" style="stop-color:#951561"/>
			<stop  offset="0.8112" style="stop-color:#CE095B"/>
			<stop  offset="0.9944" style="stop-color:#F80057"/>
		</linearGradient>
		<path style="fill:url(#SVGID_00000163754244341768888500000003578415529595138991_);" d="M282.48,361.81
			c0,1.09-0.36,1.97-1.09,2.7c-0.78,0.78-1.66,1.14-2.7,1.14c-1.14,0-2.07-0.36-2.85-1.04c-0.67-0.78-1.04-1.71-1.04-2.8v-3.99
			c-0.73,0.67-1.55,1.4-2.49,2.13c-0.93,0.73-1.76,1.3-2.49,1.76c-2.07,1.3-4.25,2.28-6.53,2.96c-2.28,0.67-4.66,0.98-7.21,0.98
			c-7.31,0-13.53-2.59-18.71-7.78c-5.19-5.24-7.73-11.46-7.73-18.67c0-7.21,2.54-13.43,7.73-18.66c5.18-5.24,11.41-7.78,18.71-7.78
			c7.31,0,13.64,2.54,18.77,7.78c5.18,5.24,7.72,11.46,7.72,18.66v22.71L282.48,361.81z M269.41,352.47
			c3.68-3.68,5.5-8.09,5.5-13.22c0-5.13-1.81-9.59-5.5-13.38c-3.63-3.63-8.09-5.44-13.33-5.44c-5.18,0-9.64,1.76-13.27,5.44
			c-3.73,3.78-5.5,8.29-5.5,13.32c0,5.08,1.76,9.49,5.5,13.27c3.68,3.68,8.09,5.5,13.27,5.5
			C261.32,357.97,265.78,356.16,269.41,352.47z"/>
		
			<linearGradient id="SVGID_00000023993421165827162370000013993341291391689881_" gradientUnits="userSpaceOnUse" x1="12.7386" y1="328.4181" x2="487.2614" y2="328.4181">
			<stop  offset="0" style="stop-color:#492568"/>
			<stop  offset="0.1118" style="stop-color:#522367"/>
			<stop  offset="0.2978" style="stop-color:#6C1E65"/>
			<stop  offset="0.535" style="stop-color:#951561"/>
			<stop  offset="0.8112" style="stop-color:#CE095B"/>
			<stop  offset="0.9944" style="stop-color:#F80057"/>
		</linearGradient>
		<path style="fill:url(#SVGID_00000023993421165827162370000013993341291391689881_);" d="M354.47,361.91
			c0,2.49-1.24,3.73-3.73,3.73h-49.77c-2.49,0-3.73-1.24-3.73-3.73v-66.93c0-2.54,1.24-3.79,3.73-3.79c2.54,0,3.79,1.24,3.79,3.79
			v63.15h45.99C353.23,358.13,354.47,359.37,354.47,361.91z"/>
		
			<linearGradient id="SVGID_00000067948630838901001020000010602013408573205658_" gradientUnits="userSpaceOnUse" x1="12.7386" y1="328.4181" x2="487.2614" y2="328.4181">
			<stop  offset="0" style="stop-color:#492568"/>
			<stop  offset="0.1118" style="stop-color:#522367"/>
			<stop  offset="0.2978" style="stop-color:#6C1E65"/>
			<stop  offset="0.535" style="stop-color:#951561"/>
			<stop  offset="0.8112" style="stop-color:#CE095B"/>
			<stop  offset="0.9944" style="stop-color:#F80057"/>
		</linearGradient>
		<path style="fill:url(#SVGID_00000067948630838901001020000010602013408573205658_);" d="M419.1,361.81c0,1.09-0.36,1.97-1.09,2.7
			c-0.78,0.78-1.66,1.14-2.7,1.14c-1.14,0-2.07-0.36-2.85-1.04c-0.67-0.78-1.04-1.71-1.04-2.8v-3.99c-0.73,0.67-1.56,1.4-2.49,2.13
			c-0.93,0.73-1.76,1.3-2.49,1.76c-2.07,1.3-4.25,2.28-6.53,2.96c-2.28,0.67-4.67,0.98-7.21,0.98c-7.31,0-13.53-2.59-18.72-7.78
			c-5.18-5.24-7.72-11.46-7.72-18.67c0-7.21,2.54-13.43,7.72-18.66c5.18-5.24,11.41-7.78,18.72-7.78c7.31,0,13.63,2.54,18.77,7.78
			c5.18,5.24,7.73,11.46,7.73,18.66v22.71L419.1,361.81z M406.04,352.47c3.68-3.68,5.5-8.09,5.5-13.22c0-5.13-1.82-9.59-5.5-13.38
			c-3.63-3.63-8.09-5.44-13.32-5.44c-5.18,0-9.64,1.76-13.27,5.44c-3.73,3.78-5.5,8.29-5.5,13.32c0,5.08,1.76,9.49,5.5,13.27
			c3.68,3.68,8.09,5.5,13.27,5.5C397.95,357.97,402.41,356.16,406.04,352.47z"/>
		
			<linearGradient id="SVGID_00000000925989775018618770000000649331666241616781_" gradientUnits="userSpaceOnUse" x1="12.7386" y1="328.4181" x2="487.2614" y2="328.4181">
			<stop  offset="0" style="stop-color:#492568"/>
			<stop  offset="0.1118" style="stop-color:#522367"/>
			<stop  offset="0.2978" style="stop-color:#6C1E65"/>
			<stop  offset="0.535" style="stop-color:#951561"/>
			<stop  offset="0.8112" style="stop-color:#CE095B"/>
			<stop  offset="0.9944" style="stop-color:#F80057"/>
		</linearGradient>
		<path style="fill:url(#SVGID_00000000925989775018618770000000649331666241616781_);" d="M460.46,312.19
			c7.41,0,13.74,2.59,18.98,7.83c5.24,5.24,7.83,11.51,7.83,18.87s-2.59,13.64-7.83,18.87c-5.24,5.24-11.56,7.88-18.93,7.88
			c-7.21,0-13.48-2.64-18.82-7.88c-5.29-5.24-7.83-11.51-7.83-18.82v-21.72c0-3.63,0-7.26,0-10.84c0-3.58,0-7.21,0-10.89
			c0-0.57,0.05-1.04,0.16-1.4c0.1-0.36,0.26-0.67,0.47-0.93c1.09-1.04,2.18-1.56,3.27-1.56c0.99,0,2.02,0.52,3.11,1.56
			c0.26,0.26,0.47,0.57,0.57,0.93c0.1,0.36,0.16,0.83,0.16,1.4v24.73c0.78-0.78,1.61-1.5,2.49-2.18c0.88-0.68,1.76-1.35,2.64-1.87
			c2.12-1.24,4.35-2.13,6.69-2.8s4.67-0.98,7.05-0.98V312.19z M460.46,358.07c5.34,0,9.85-1.87,13.53-5.55
			c3.68-3.68,5.5-8.14,5.5-13.38c0-5.29-1.81-9.75-5.5-13.43c-1.87-1.87-3.94-3.27-6.22-4.2c-2.28-0.93-4.72-1.4-7.31-1.4
			c-5.24,0-9.7,1.87-13.38,5.55c-3.63,3.68-5.44,8.14-5.44,13.38c0,5.24,1.76,9.7,5.44,13.43c3.68,3.68,8.14,5.55,13.38,5.55V358.07
			z"/>
	</g>
</g>
</svg>
