<?xml version="1.0" encoding="utf-8"?>
<!-- Generator: Adobe Illustrator 28.3.0, SVG Export Plug-In . SVG Version: 6.00 Build 0)  -->
<svg version="1.1" id="Capa_1" xmlns="http://www.w3.org/2000/svg" xmlns:xlink="http://www.w3.org/1999/xlink" x="0px" y="0px"
	 viewBox="0 0 100 100" style="enable-background:new 0 0 100 100;" xml:space="preserve">
<g>
	<path d="M90.77,11.81C90.75,4.12,87.19,0.71,79.53,0.7C59.81,0.68,40.1,0.68,20.38,0.69C12.73,0.7,9.21,4.23,9.19,11.86
		c-0.02,12.77-0.01,25.55,0,38.32c0,12.77-0.02,25.55,0.01,38.32c0.02,7.3,3.53,10.81,10.7,10.81c19.71,0,39.43,0,59.14,0
		c8.6,0,11.68-2.89,11.71-11.59C90.84,62.42,90.83,37.12,90.77,11.81z M79.75,48.6c-0.01,0-0.02,0-0.03,0
		c0,11.19-0.06,22.38,0.05,33.57c0.02,2.32-0.57,3.16-3.03,3.15c-17.88-0.1-35.77-0.09-53.65-0.01c-2.23,0.01-2.9-0.64-2.89-2.88
		c0.08-22.5,0.08-45.01,0.01-67.51c-0.01-2.31,0.56-3.15,3.03-3.14c17.89,0.1,35.77,0.09,53.66,0c2.56-0.01,2.94,0.98,2.92,3.25
		C79.69,26.22,79.75,37.41,79.75,48.6z M40.98,4.49h18.27c0.88,0,1.62,0.63,1.79,1.46c0.02,0.12,0.04,0.24,0.04,0.37
		c0,1.01-0.82,1.83-1.83,1.83H40.98c-1.01,0-1.83-0.82-1.83-1.83c0-0.13,0.01-0.25,0.04-0.37C39.36,5.12,40.09,4.49,40.98,4.49z
		 M50,97.3c-2.82,0-5.12-2.29-5.12-5.12c0-0.51,0.08-1,0.21-1.46c0.63-2.11,2.58-3.65,4.9-3.65s4.27,1.54,4.9,3.65
		c0.14,0.46,0.21,0.95,0.21,1.46C55.12,95.01,52.82,97.3,50,97.3z"/>
	<path d="M34.15,61.49h-6.08c-0.74,0-1.35,0.6-1.35,1.35v8.15h8.77v-8.15C35.5,62.09,34.89,61.49,34.15,61.49z"/>
	<path d="M46.57,46.15H40.5c-0.74,0-1.35,0.6-1.35,1.35v23.5h8.77v-23.5C47.92,46.75,47.32,46.15,46.57,46.15z"/>
	<path d="M70.69,46.15h-6.08c-0.74,0-1.35,0.6-1.35,1.35v23.5h8.77v-23.5C72.03,46.75,71.43,46.15,70.69,46.15z"/>
	<path d="M52.92,51.26c-0.74,0-1.35,0.6-1.35,1.35v18.38h8.77V52.61c0-0.74-0.6-1.35-1.35-1.35H52.92z"/>
	<ellipse transform="matrix(0.3827 -0.9239 0.9239 0.3827 -22.0773 56.3274)" cx="31.11" cy="44.68" rx="3.65" ry="3.65"/>
	<ellipse transform="matrix(0.3827 -0.9239 0.9239 0.3827 3.1438 56.0759)" cx="43.53" cy="25.69" rx="3.65" ry="3.65"/>
	<ellipse transform="matrix(0.7071 -0.7071 0.7071 0.7071 -11.0738 50.9423)" cx="55.96" cy="38.84" rx="3.65" ry="3.65"/>
	<circle cx="70.57" cy="26.42" r="3.65"/>
	<path d="M33.51,39.6L33.51,39.6c0.49,0.34,1.15,0.27,1.47-0.16l6.22-8.45c0.32-0.43,0.18-1.06-0.31-1.41
		c-0.49-0.34-1.15-0.27-1.47,0.16l-6.22,8.45C32.88,38.62,33.02,39.25,33.51,39.6z"/>
	<path d="M47.94,28.83l-0.43,0.38c-0.33,0.29-0.35,0.8-0.06,1.13l3.77,4.2c0.29,0.33,0.8,0.36,1.13,0.06l0.43-0.38
		c0.33-0.29,0.35-0.8,0.06-1.13l-3.77-4.2C48.77,28.56,48.26,28.54,47.94,28.83z"/>
	<path d="M60.87,35.88c0.3,0.32,0.81,0.33,1.13,0.03l4.09-3.89c0.32-0.3,0.33-0.81,0.03-1.13l-0.4-0.42
		c-0.3-0.32-0.81-0.33-1.13-0.03l-4.09,3.89c-0.32,0.3-0.33,0.81-0.03,1.13L60.87,35.88z"/>
</g>
</svg>
