<?xml version="1.0" encoding="utf-8"?>
<!-- Generator: Adobe Illustrator 28.3.0, SVG Export Plug-In . SVG Version: 6.00 Build 0)  -->
<svg version="1.1" id="Capa_1" xmlns="http://www.w3.org/2000/svg" xmlns:xlink="http://www.w3.org/1999/xlink" x="0px" y="0px"
	 viewBox="0 0 200 200" style="enable-background:new 0 0 200 200;" xml:space="preserve">
<style type="text/css">
	.st0{fill:#FFFFFF;}
	.st1{fill-rule:evenodd;clip-rule:evenodd;fill:#FFFFFF;}
</style>
<g>
	<path class="st0" d="M100,14.78c46.99,0,85.22,38.23,85.22,85.22c0,46.99-38.23,85.22-85.22,85.22
		c-46.99,0-85.22-38.23-85.22-85.22C14.78,53.01,53.01,14.78,100,14.78 M100,1.26C45.47,1.26,1.26,45.47,1.26,100
		c0,54.53,44.21,98.74,98.74,98.74c54.53,0,98.74-44.21,98.74-98.74C198.74,45.47,154.53,1.26,100,1.26L100,1.26z"/>
	<path class="st1" d="M47.87,152.42c0.61-2.36,1.14-4.41,1.69-6.47c1.8-6.56,3.64-13.12,5.35-19.7c0.25-0.98,0.14-2.29-0.32-3.17
		C37.91,91.3,55.12,52.81,90.12,44.6c31.79-7.45,60.36,14,65.58,42.7c5.43,29.92-14.15,58.36-43.84,63.55
		c-11.8,2.04-23.08,0.31-33.86-4.93c-0.96-0.48-2.31-0.61-3.33-0.36C60.31,149.15,50.76,151.85,47.87,152.42z M60.5,139.97
		c5.4-1.4,10.38-2.65,15.3-4.04c1.4-0.38,2.47-0.17,3.7,0.54c9.33,5.38,19.33,7.39,30.02,5.67c24.61-3.95,41.47-26.97,37.7-51.49
		c-3.91-25.41-27.73-42.46-52.91-37.85c-30.46,5.59-46.63,39.55-31.48,66.44c1.68,2.98,2.14,5.44,1.01,8.6
		C62.5,131.66,61.67,135.64,60.5,139.97z"/>
	<path class="st1" d="M116.54,123.33c-10.58-0.38-27.45-8.73-38.99-28.79c-4.1-7.13-3.51-15.26,2.5-20.84
		c2.03-1.89,4.58-1.43,6.96-1.03c0.59,0.09,1.2,0.98,1.49,1.65c1.54,3.5,3.05,7,4.39,10.59c0.71,1.89-0.59,3.67-3.33,6.83
		c-0.87,0.99-1.05,1.92-0.37,3.08c4.44,7.52,10.65,12.96,18.82,16.15c1.2,0.46,2.1,0.17,2.86-0.77c4.33-5.28,4.77-6.83,7.05-5.74
		c10.95,5.24,11.81,5.45,11.86,6.7C130.13,120.38,121.67,123.71,116.54,123.33z"/>
</g>
</svg>
