<?xml version="1.0" encoding="utf-8"?>
<!-- Generator: Adobe Illustrator 28.3.0, SVG Export Plug-In . SVG Version: 6.00 Build 0)  -->
<svg version="1.1" id="Capa_1" xmlns="http://www.w3.org/2000/svg" xmlns:xlink="http://www.w3.org/1999/xlink" x="0px" y="0px"
	 viewBox="0 0 200 200" style="enable-background:new 0 0 200 200;" xml:space="preserve">
<style type="text/css">
	.st0{fill-rule:evenodd;clip-rule:evenodd;fill:#FFFFFF;}
</style>
<g>
	<path class="st0" d="M3.7,198.7c1.1-4.2,2-7.9,3-11.6c3.2-11.7,6.5-23.5,9.6-35.2c0.4-1.8,0.3-4.1-0.6-5.7
		C-14.1,89.4,16.7,20.5,79.3,5.9c56.9-13.3,108,25,117.3,76.4c9.7,53.5-25.3,104.4-78.4,113.7c-21.1,3.6-41.3,0.6-60.6-8.8
		c-1.7-0.9-4.1-1.1-6-0.6C25.9,192.8,8.9,197.7,3.7,198.7z M26.3,176.4c9.7-2.5,18.6-4.7,27.4-7.2c2.5-0.7,4.4-0.3,6.6,1
		c16.7,9.6,34.6,13.2,53.7,10.1c44-7.1,74.2-48.2,67.4-92.1c-7-45.4-49.6-75.9-94.6-67.7c-54.5,10-83.4,70.7-56.3,118.8
		c3,5.3,3.8,9.7,1.8,15.4C29.9,161.6,28.4,168.7,26.3,176.4z"/>
	<path class="st0" d="M126.5,146.7c-18.9-0.7-49.1-15.6-69.7-51.5c-7.3-12.8-6.3-27.3,4.5-37.3c3.6-3.4,8.2-2.6,12.4-1.8
		c1.1,0.2,2.1,1.8,2.7,3c2.8,6.3,5.5,12.5,7.9,18.9c1.3,3.4-1.1,6.6-6,12.2c-1.6,1.8-1.9,3.4-0.7,5.5c7.9,13.5,19,23.2,33.7,28.9
		c2.1,0.8,3.8,0.3,5.1-1.4c7.7-9.4,8.5-12.2,12.6-10.3c19.6,9.4,21.1,9.7,21.2,12C150.8,141.4,135.7,147.3,126.5,146.7z"/>
</g>
</svg>
